<svg width="172" height="148" viewBox="0 0 172 148" fill="none" xmlns="http://www.w3.org/2000/svg">
<path d="M85.5414 104.035C98.8859 104.035 109.704 93.8027 109.704 81.1808C109.704 68.5588 98.8859 58.3267 85.5414 58.3267C72.1968 58.3267 61.3789 68.5588 61.3789 81.1808C61.3789 93.8027 72.1968 104.035 85.5414 104.035Z" stroke="#5F02FF" stroke-width="10"/>
<path d="M67.6452 142.125H103.438C128.575 142.125 141.147 142.125 150.176 136.526C154.073 134.112 157.428 130.995 160.05 127.354C166.083 118.974 166.083 107.295 166.083 83.9536C166.083 60.612 166.083 48.9335 160.05 40.5537C157.428 36.9122 154.073 33.7954 150.176 31.3816C144.377 27.7783 137.112 26.4908 125.989 26.0337C120.682 26.0337 116.115 22.3009 115.076 17.4635C114.282 13.9201 112.219 10.7446 109.236 8.4738C106.252 6.20298 102.531 4.97604 98.702 5.00035H72.381C64.4235 5.00035 57.5694 10.2187 56.0069 17.4635C54.968 22.3009 50.4012 26.0337 45.0936 26.0337C33.9788 26.4908 26.714 27.7859 20.9069 31.3816C17.0131 33.7962 13.6604 36.913 11.0406 40.5537C5 48.9335 5 60.6044 5 83.9536C5 107.303 5 118.966 11.0326 127.354C13.6421 130.98 16.9926 134.096 20.9069 136.526C29.9356 142.125 42.5082 142.125 67.6452 142.125Z" stroke="#5F02FF" stroke-width="10"/>
<path d="M141.92 58.3267H133.866" stroke="#5F02FF" stroke-width="10" stroke-linecap="round"/>
</svg>
